<?xml version="1.0" encoding="UTF-8"?>
<svg width="60px" height="61px" viewBox="0 0 60 61" version="1.1" xmlns="http://www.w3.org/2000/svg" xmlns:xlink="http://www.w3.org/1999/xlink">
    <!-- Generator: Sketch 41.2 (35397) - http://www.bohemiancoding.com/sketch -->
    <title>iconfont-yinledna</title>
    <desc>Created with Sketch.</desc>
    <defs></defs>
    <g id="控制台" stroke="none" stroke-width="1" fill="none" fill-rule="evenodd">
        <path d="M29.9983245,60.75 C13.4304401,60.75 0,47.3196162 0,30.7514661 C0,14.1836511 13.4304401,0.75 29.9983245,0.75 C46.5668791,0.75 60,14.1836511 60,30.7514661 C60,47.3196162 46.5668791,60.75 29.9983245,60.75 M29.9983245,4.50126188 C15.5019911,4.50126188 3.75069116,16.2545232 3.75069116,30.751131 C3.75069116,45.2480738 15.5019911,56.9993246 29.9983245,56.9993246 C44.4956631,56.9993246 56.2493088,45.2480738 56.2493088,30.751131 C56.2493088,16.2545232 44.4956631,4.50126188 29.9983245,4.50126188 M32.1771937,24.8222656 L34.9588376,22.0429791 C35.6820835,22.7844852 36.2753914,23.3902733 36.626249,23.7482505 C40.202768,27.4072744 40.3428429,33.0704006 36.626249,36.8720121 C35.7818617,37.7340727 34.3171067,39.2374426 32.6703882,40.92244 C34.9356314,43.1876737 37.2064039,45.4575152 38.4362486,46.6876898 C38.9038912,47.1533198 39.0417041,47.9586636 38.4483962,48.5487017 C38.101141,48.8992228 37.7068032,49.2928887 37.3700202,49.6305919 C36.9298564,50.0678216 36.2108832,50.0854985 35.6520076,49.5262063 L27.1090272,40.9836807 C26.3785766,40.2522278 25.6903495,39.5676059 25.0820455,38.9586343 L24.3735444,38.2504712 C24.0180791,37.8950074 23.6934436,37.5681114 23.4379241,37.311839 C19.6329455,33.5102274 19.7768742,27.8471012 23.4379241,24.1880773 C24.1310103,23.494994 25.7139745,21.9127066 27.5439131,20.0820218 C25.3346328,17.822066 23.1312169,15.5688961 21.9416689,14.3522095 C21.3869822,13.7847072 21.4482231,13.0255243 22.0156439,12.4449529 C22.3210107,12.1328015 22.655448,11.7904906 22.9515993,11.4887275 C23.5246332,10.9032971 24.1205382,10.9569979 24.6500081,11.4988645 C25.8307595,12.705833 28.0704508,14.9992156 30.3236301,17.3033217 C32.4756907,15.149427 34.5576301,13.068753 35.6872776,11.9364293 C36.2295654,11.3944789 36.8402151,11.3431239 37.4259831,11.9282192 C37.7270772,12.2299823 38.0703949,12.5726283 38.3819612,12.8844446 C38.9634565,13.465016 39.0262892,14.2242827 38.4585332,14.7920363 C37.9735488,15.2780239 37.3157327,15.9370939 36.564673,16.6890721 L36.5614057,16.6868102 L30.3236301,22.9252298 C29.8729942,23.3751936 29.4407055,23.8094911 29.0345552,24.2158911 L28.9072981,24.3444881 C27.6539121,25.5992092 26.6642558,26.5861806 26.2503142,27.0007906 C24.0207599,29.2300842 24.015482,32.2676538 26.2503142,34.4991256 C26.7539808,35.0031252 28.1683022,36.4171893 29.8887443,38.1404727 C31.762917,36.222744 33.3428653,34.6045165 33.877278,34.0592988 C36.0584092,31.8274919 36.0532151,28.7902574 33.877278,26.5609638 C33.5781946,26.2536715 32.9665395,25.6299552 32.1771937,24.8222656 M25.2532017,42.8807165 L28.0348456,45.6600868 C26.6669366,47.0587361 25.4577011,48.2987126 24.6856971,49.0857931 C24.1385502,49.6463419 23.4349082,49.6279948 23.0058867,49.1911002 C22.6763922,48.8530619 22.2925265,48.4597311 21.9505493,48.1088749 C21.371651,47.5185855 21.5067831,46.7155036 21.9622781,46.247863 C22.7320201,45.4607825 23.9215681,44.2460227 25.2532017,42.8807165" id="iconfont-yinledna" fill="#FFFFFF"></path>
    </g>
</svg>