<?xml version="1.0" encoding="UTF-8"?>
<svg width="30px" height="30px" viewBox="0 0 30 30" version="1.1" xmlns="http://www.w3.org/2000/svg" xmlns:xlink="http://www.w3.org/1999/xlink">
    <!-- Generator: Sketch 41.2 (35397) - http://www.bohemiancoding.com/sketch -->
    <title>Page 1</title>
    <desc>Created with Sketch.</desc>
    <defs></defs>
    <g id="控制台" stroke="none" stroke-width="1" fill="none" fill-rule="evenodd">
        <g id="Page-1">
            <path d="M19.3168163,21.1828776 L17.9533469,22.5463469 L16.233551,20.826551 L15.2815102,22.5671633 L13.8506939,17.0826735 L19.3357959,18.5147143 L17.5957959,19.4661429 L19.3168163,21.1828776 Z M6.20804082,24.1834898 L24.2398776,24.1834898 L24.2398776,14.4763469 L6.20804082,14.4763469 L6.20804082,24.1834898 Z" id="Fill-1" fill="#F8B62D"></path>
            <g id="Group-4" transform="translate(0.000000, 0.422143)" fill="#286CAC">
                <path d="M27.4231224,26.8084286 C27.4231224,27.417 26.9272041,27.9159796 26.3143469,27.9159796 L4.13271429,27.9159796 C3.52291837,27.9159796 3.02332653,27.417 3.02332653,26.8084286 L3.02332653,26.4380204 C3.02332653,26.3957755 3.03189796,26.3559796 3.03802041,26.3155714 L11.4735306,26.3155714 C11.4882245,26.489449 11.6296531,26.6235306 11.8078163,26.6235306 L18.6404694,26.6235306 C18.8180204,26.6235306 18.9600612,26.489449 18.9759796,26.3155714 L27.4102653,26.3155714 C27.4151633,26.3559796 27.4231224,26.3957755 27.4231224,26.4380204 L27.4231224,26.8084286 Z M4.93414286,13.3347551 C4.93414286,13.0500612 5.16312245,12.8204694 5.4447551,12.8204694 L25.0010816,12.8204694 C25.2833265,12.8204694 25.5159796,13.0500612 25.5159796,13.3347551 L25.5159796,24.8449592 L18.9759796,24.8449592 L17.6492449,24.8449592 L17.6180204,25.1529184 L12.8480204,25.1529184 L12.8210816,24.8449592 L11.4735306,24.8449592 L4.93414286,24.8449592 L4.93414286,13.3347551 Z M28.6782245,24.8565918 L27.4102653,24.8449592 L26.9865918,24.8449592 L26.9865918,17.8586327 C27.1457755,17.7227143 27.3037347,17.5831224 27.444551,17.4282245 C28.6678163,16.3176122 29.4423061,14.7202653 29.4423061,12.9367959 C29.4423061,9.5847551 26.7233265,6.86761224 23.371898,6.86761224 C22.7229184,6.86761224 22.0978163,6.97108163 21.5112857,7.16026531 C21.1249592,3.24740816 17.8237347,0.189857143 13.8104694,0.189857143 C9.53577551,0.189857143 6.06985714,3.65577551 6.06985714,7.9292449 C6.06985714,8.44842857 6.12312245,8.95720408 6.22169388,9.447 L4.78046939,9.447 C2.13985714,9.447 6.12244898e-05,11.5874082 6.12244898e-05,14.2274082 C6.12244898e-05,16.4082245 1.46393878,18.2437347 3.46291837,18.8149592 L3.46291837,24.8449592 L3.03802041,24.8449592 L1.74679592,24.8449592 L1.57842857,26.124551 C1.56863265,26.1882245 1.55332653,26.2990408 1.55332653,26.4380204 L1.55332653,26.8084286 C1.55332653,28.2306735 2.70985714,29.3878163 4.13271429,29.3878163 L26.3143469,29.3878163 C27.7372041,29.3878163 28.8937347,28.2306735 28.8937347,26.8084286 L28.8937347,26.4380204 C28.8937347,26.2910816 28.8765918,26.1716939 28.8667959,26.1080204 L28.6782245,24.8565918 Z" id="Fill-2"></path>
            </g>
        </g>
    </g>
</svg>