<?xml version="1.0" encoding="UTF-8"?>
<svg width="62px" height="57px" viewBox="0 0 62 57" version="1.1" xmlns="http://www.w3.org/2000/svg" xmlns:xlink="http://www.w3.org/1999/xlink">
    <!-- Generator: Sketch 41.2 (35397) - http://www.bohemiancoding.com/sketch -->
    <title>Page 1</title>
    <desc>Created with Sketch.</desc>
    <defs></defs>
    <g id="功能选择入口" stroke="none" stroke-width="1" fill="none" fill-rule="evenodd" stroke-linecap="round">
        <g id="Page-1" transform="translate(31.000000, 29.320615) rotate(-40.000000) translate(-31.000000, -29.320615) translate(-7.000000, 5.320615)" stroke="#FFFFFF" stroke-width="2">
            <path d="M71.7235644,29.2925143 L63.8009867,31.5896571 C59.6226756,32.7999429 55.46632,29.6165143 55.46632,25.2073714 C55.46632,20.7965143 59.6226756,17.6130857 63.8009867,18.8250857 L71.7235644,21.1205143 C73.5205422,21.6433714 74.7601867,23.3096571 74.7601867,25.2073714 C74.7601867,27.1050857 73.5205422,28.7713714 71.7235644,29.2925143 Z" id="Stroke-1"></path>
            <path d="M56.0246667,21.9432 L51.5508,21.9432 C49.7740889,21.9432 48.3351556,23.4054857 48.3351556,25.2072 C48.3351556,27.0106286 49.7740889,28.4712 51.5508,28.4712 L56.0246667,28.4712" id="Stroke-3"></path>
            <path d="M48.3348178,25.2068571 C46.2828178,25.2068571 44.28824,25.8925714 42.6584622,27.156 C39.6083289,29.5234286 35.21384,28.7297143 33.1533956,25.4417143 C30.5035289,21.2108571 24.6295733,20.6622857 21.2653067,24.3325714 L21.2636178,24.336 C19.2251289,26.5594286 16.1209511,27.4148571 13.2549067,26.5422857 C9.27926222,25.3337143 5.15161778,25.2068571 1.00201778,25.2068571" id="Stroke-5"></path>
            <path d="M55.0738222,2.814 L49.5055556,1.19914286 C46.5702667,0.348857143 43.6468,2.586 43.6468,5.68542857 C43.6468,8.78485714 46.5702667,11.022 49.5055556,10.1717143 L55.0738222,8.55685714 C56.3371111,8.19 57.2085778,7.01914286 57.2085778,5.68542857 C57.2085778,4.35171429 56.3371111,3.17914286 55.0738222,2.814 Z" id="Stroke-7"></path>
            <path d="M43.6474756,5.68508571 C39.8069422,5.68508571 40.2426756,7.5588 35.9883644,7.5588 C30.2208089,7.5588 31.3101422,4.44565714 25.5358311,4.44565714 C21.5348533,4.44565714 20.5248978,6.56965714 14.3165422,6.56965714" id="Stroke-9"></path>
            <path d="M50.7114222,42.5221714 L46.9046667,41.4181714 C44.8965778,40.8370286 42.8969333,42.3661714 42.8969333,44.4867429 C42.8969333,46.6056 44.8965778,48.1347429 46.9046667,47.5536 L50.7114222,46.4496 C51.5761333,46.1993143 52.1706222,45.3970286 52.1706222,44.4867429 C52.1706222,43.5747429 51.5761333,42.7724571 50.7114222,42.5221714 Z" id="Stroke-11"></path>
            <path d="M42.8971022,44.4858857 C40.27088,44.4858857 40.5698133,45.7681714 37.6598578,45.7681714 C33.7146133,45.7681714 34.4611022,43.6373143 30.51248,43.6373143 C27.7747911,43.6373143 27.0857244,45.0910286 22.8398578,45.0910286" id="Stroke-13"></path>
        </g>
    </g>
</svg>