<?xml version="1.0" encoding="UTF-8"?>
<svg width="60px" height="60px" viewBox="0 0 60 60" version="1.1" xmlns="http://www.w3.org/2000/svg" xmlns:xlink="http://www.w3.org/1999/xlink">
    <!-- Generator: Sketch 41.2 (35397) - http://www.bohemiancoding.com/sketch -->
    <title>iconfont-yinledna</title>
    <desc>Created with Sketch.</desc>
    <defs></defs>
    <g id="功能选择入口" stroke="none" stroke-width="1" fill="none" fill-rule="evenodd">
        <path d="M29.9983245,60 C13.4304401,60 0,46.5696162 0,30.0014661 C0,13.4336511 13.4304401,0 29.9983245,0 C46.5668791,0 60,13.4336511 60,30.0014661 C60,46.5696162 46.5668791,60 29.9983245,60 M29.9983245,3.75126188 C15.5019911,3.75126188 3.75069116,15.5045232 3.75069116,30.001131 C3.75069116,44.4980738 15.5019911,56.2493246 29.9983245,56.2493246 C44.4956631,56.2493246 56.2493088,44.4980738 56.2493088,30.001131 C56.2493088,15.5045232 44.4956631,3.75126188 29.9983245,3.75126188" id="iconfont-yinledna" fill="#FFFFFF"></path>
        <path d="M39.4691516,39.6199018 C38.540662,39.6199018 37.7873658,38.8411129 37.7873658,37.8800131 C37.7873658,36.9193322 38.540662,36.140072 39.4691516,36.140072 C42.2554715,36.140072 44.514459,33.803234 44.514459,30.9203535 C44.514459,29.3654992 43.8540417,27.9746776 42.811694,27.0177152 C42.7048456,26.9192013 42.5926398,26.8257152 42.4770793,26.736838 C42.4700695,26.7313912 42.4622086,26.7249493 42.4542976,26.7194501 C42.3456968,26.6361244 42.233541,26.5586645 42.1179305,26.4839804 C42.1003561,26.4720917 42.0820306,26.4615646 42.0645063,26.4496236 C41.9567566,26.3822717 41.8464033,26.3195286 41.7342476,26.2604517 C41.703605,26.2443732 41.6720612,26.2292373 41.6405174,26.2136825 C41.538025,26.1628282 41.4329291,26.1143306 41.3260306,26.0698658 C41.2796662,26.0506448 41.2323505,26.0346187 41.1850848,26.016707 C41.088701,25.9805696 40.9924172,25.94527 40.8942309,25.9150507 C40.8285396,25.8948871 40.7619471,25.8798036 40.6954047,25.862311 C40.6104367,25.8403666 40.5254687,25.8169558 40.4396495,25.7995679 C40.3485229,25.780766 40.255694,25.7684059 40.162815,25.7556268 C40.0962726,25.7455712 40.0305313,25.7332111 39.9631377,25.7262455 C39.8011127,25.7102193 39.6355327,25.7001637 39.4691015,25.7001637 C39.4165285,25.7001637 39.3658081,25.7074959 39.3131349,25.7084386 C39.2623644,25.4110638 39.1975744,25.1183502 39.1213185,24.8320262 C39.102943,24.7614795 39.0775577,24.6946514 39.0573296,24.6245237 C38.9942921,24.4069656 38.9303533,24.1906645 38.8532462,23.9799673 C38.8304645,23.9162815 38.8015744,23.8549002 38.7779416,23.7916334 C38.6947761,23.5777414 38.6088567,23.3646874 38.5125229,23.1585466 C38.4888401,23.1081113 38.4617024,23.0605041 38.4380695,23.0114304 C38.3320723,22.795234 38.2225702,22.5813421 38.1025535,22.3746776 C36.4382921,19.5046285 33.4093853,17.580491 29.9389152,17.580491 C26.4676439,17.580491 23.4395883,19.5046285 21.7752768,22.3746776 C21.6552601,22.5812897 21.545758,22.795234 21.4397608,23.0114304 C21.416128,23.0605041 21.3889903,23.1081113 21.3653574,23.1585466 C21.2689736,23.3646874 21.1831544,23.577689 21.0999388,23.7916334 C21.076306,23.8549002 21.0474159,23.9162291 21.0246342,23.9799673 C20.9475271,24.1906645 20.8835883,24.4069656 20.8205508,24.6245237 C20.8004228,24.6946514 20.7750376,24.7614795 20.756612,24.8320262 C20.6804061,25.1183502 20.6156161,25.4111162 20.5647955,25.7084386 C20.5122225,25.7074959 20.461452,25.7001637 20.408879,25.7001637 C20.2415466,25.7001637 20.0769179,25.7102193 19.9139416,25.7262455 C19.8464979,25.7331588 19.7817079,25.7455188 19.7151154,25.7556268 C19.6222865,25.7684583 19.5294075,25.780766 19.438331,25.7995679 C19.3516106,25.8169558 19.2675438,25.8403666 19.1825758,25.862311 C19.1159833,25.8797512 19.0494409,25.8948871 18.9836996,25.9150507 C18.8855633,25.94527 18.7892796,25.9805696 18.6928957,26.016707 C18.64558,26.0346187 18.5983143,26.0506448 18.5518999,26.0698658 C18.4450515,26.1143306 18.3399054,26.1628282 18.2365619,26.2136825 C18.2059193,26.2292373 18.1743755,26.2443732 18.143733,26.2604517 C18.030726,26.3195286 17.9212239,26.3822717 17.8135243,26.4496236 C17.7959499,26.4615123 17.7776245,26.4720393 17.7600501,26.4839804 C17.6444395,26.5586645 17.5323338,26.6361244 17.4227816,26.7194501 C17.4157719,26.7249493 17.407911,26.7313912 17.4009013,26.736838 C17.2852907,26.8257152 17.173185,26.9192013 17.0654353,27.0177152 C16.0239388,27.9746776 15.3635216,29.3655516 15.3635216,30.9203535 C15.3635216,33.803234 17.6225591,36.140072 20.408879,36.140072 C21.3373686,36.140072 22.0906648,36.9193322 22.0906648,37.8800131 C22.0906648,38.8411129 21.3373686,39.6199018 20.408879,39.6199018 C15.7647288,39.6199018 12,35.7245434 12,30.9203535 C12,27.0006939 14.5060306,23.688563 17.9501641,22.6005106 C19.8211627,17.630455 24.4714214,14.1007136 29.9389652,14.1007136 C35.406509,14.1007136 40.0567677,17.630455 41.9286676,22.6005106 C45.3719499,23.688563 47.8779805,27.0006939 47.8779805,30.9203535 C47.8780306,35.7245434 44.1133018,39.6199018 39.4691516,39.6199018 Z M23.643822,35.5559542 L23.6464256,35.5527594 C23.648178,35.550874 23.6490793,35.5499836 23.6499305,35.5482029 L28.6890793,29.7562553 L28.6934854,29.7603404 C29.0018136,29.4067169 29.4432768,29.1799411 29.9390654,29.1799411 C30.4348039,29.1799411 30.8763171,29.4067169 31.1846453,29.7603404 L31.1890014,29.7562553 L36.2282003,35.5495123 C36.2290515,35.5504026 36.2299527,35.5504026 36.2299527,35.550874 L36.2343088,35.5559542 C36.4690848,35.8257807 36.6231989,36.1711817 36.6582476,36.5537152 L36.6582476,36.5568576 C36.6635549,36.6100164 36.6661586,36.6641178 36.6661586,36.7190049 L36.6661586,36.7194763 C36.6661586,37.6806285 35.9128122,38.4598887 34.9843727,38.4598887 C34.9659471,38.4598887 34.9476217,38.4589984 34.9300473,38.458527 C34.9186815,38.4580556 34.9072656,38.4580556 34.8958498,38.4571653 C34.8845341,38.4566939 34.8731182,38.4553322 34.8608512,38.4548609 C34.8424757,38.4530278 34.8231488,38.4521375 34.8047733,38.4498331 C34.7986648,38.4489427 34.7925063,38.448 34.7864478,38.4471097 C34.7609624,38.4438625 34.7364784,38.4411391 34.7119944,38.4365303 L34.7111433,38.4365303 C34.3257079,38.3715352 33.9841335,38.1712602 33.7344367,37.8840458 L33.7344367,37.8845172 L31.6209013,35.4542455 L31.6209013,44.2596399 C31.6209013,45.2202684 30.8675549,46 29.9391154,46 C29.0106259,46 28.2573296,45.2202684 28.2573296,44.2596399 L28.2573296,35.4542455 L26.143694,37.8845172 L26.143694,37.8840458 C25.8940974,38.1712602 25.5533241,38.3715352 25.1678887,38.4360589 C25.1670376,38.4365303 25.1670376,38.4365303 25.1661363,38.4365303 C25.1416523,38.4411391 25.1179694,38.4438625 25.0934854,38.4466383 C25.0864757,38.448 25.0794659,38.4489427 25.0724562,38.4498331 C25.0549318,38.4521375 25.0365563,38.4530278 25.0181307,38.4548609 C25.0058637,38.4553322 24.9935967,38.4566939 24.9813797,38.4575843 C24.970815,38.4580556 24.9603505,38.4580556 24.9497858,38.458527 C24.9305591,38.458946 24.9121335,38.4598363 24.893758,38.4598363 C24.2551711,38.4598363 23.6998498,38.0915483 23.4151544,37.5495908 C23.2855243,37.3027038 23.2119722,37.0204648 23.2119722,36.7194763 C23.2119722,36.272419 23.3748985,35.864275 23.643822,35.5559542 L23.643822,35.5559542 Z" id="上传-(1)" fill="#FFFFFF"></path>
    </g>
</svg>