<?xml version="1.0" encoding="UTF-8"?>
<svg width="80px" height="61px" viewBox="0 0 80 61" version="1.1" xmlns="http://www.w3.org/2000/svg" xmlns:xlink="http://www.w3.org/1999/xlink">
    <!-- Generator: Sketch 41.2 (35397) - http://www.bohemiancoding.com/sketch -->
    <title>Page 1</title>
    <desc>Created with Sketch.</desc>
    <defs></defs>
    <g id="功能选择入口" stroke="none" stroke-width="1" fill="none" fill-rule="evenodd">
        <g id="01功能选择入口" transform="translate(-680.000000, -350.000000)" stroke="#FFFFFF" stroke-width="2">
            <g id="Page-1" transform="translate(681.000000, 351.000000)">
                <path d="M41.2720862,26.545575 C40.9990862,24.2338477 40.4746034,21.840325 39.9138103,19.4816659 C38.2556379,12.5062568 36.8126379,5.31764318 41.3473966,0.796097727" id="Stroke-1" stroke-linecap="round" stroke-linejoin="round"></path>
                <path d="M31.5496552,39.7280523 C33.6193448,39.3284614 35.49,38.4702795 37.0352069,36.9268932 C38.657069,35.3097568 39.5285172,33.3372795 39.8996897,31.1515977" id="Stroke-3" stroke-linecap="round" stroke-linejoin="round"></path>
                <path d="M0.798558621,41.2261159 C5.33197241,36.7059114 12.5429379,38.1433659 19.5400759,39.7980477 C21.9042828,40.3572068 24.3048,40.8788205 26.6232828,41.151025" id="Stroke-5" stroke-linecap="round" stroke-linejoin="round"></path>
                <path d="M18.1054138,58.48375 C22.6401724,53.9622045 21.1971724,46.77225 19.539,39.7968409 C17.8808276,32.8227727 16.5386897,25.53225 21.0721034,21.0120455 C25.6068621,16.4905 32.9200345,17.8287273 39.9144828,19.4820682 C46.908931,21.1354091 54.1198966,22.5742045 58.6546552,18.0526591" id="Stroke-7" stroke-linecap="round" stroke-linejoin="round"></path>
                <path d="M39.8497966,3.16213182 L56.3091414,19.5721773" id="Stroke-9" stroke-linecap="round" stroke-linejoin="round"></path>
                <path d="M38.5168034,9.95960227 L49.4905966,20.9014205" id="Stroke-11" stroke-linecap="round" stroke-linejoin="round"></path>
                <path d="M30.3663414,18.0876568 L38.4043759,26.1009295" id="Stroke-13" stroke-linecap="round" stroke-linejoin="round"></path>
                <path d="M35.1021517,30.9362477 L38.6619103,34.4856341" id="Stroke-15" stroke-linecap="round" stroke-linejoin="round"></path>
                <path d="M23.5490069,19.415425 L32.0765586,27.9194705" id="Stroke-17" stroke-linecap="round" stroke-linejoin="round"></path>
                <path d="M31.0270552,34.9996045 L34.5868138,38.5489909" id="Stroke-19" stroke-linecap="round" stroke-linejoin="round"></path>
                <path d="M19.4725655,23.4799886 L28.0014621,31.9826932" id="Stroke-21" stroke-linecap="round" stroke-linejoin="round"></path>
                <path d="M18.1407828,30.2775932 L26.2743,38.3874114" id="Stroke-23" stroke-linecap="round" stroke-linejoin="round"></path>
                <path d="M9.98911034,38.4041727 L20.9629034,49.3459909" id="Stroke-25" stroke-linecap="round" stroke-linejoin="round"></path>
                <path d="M3.17177586,39.7332818 L19.6297759,56.1446682" id="Stroke-27" stroke-linecap="round" stroke-linejoin="round"></path>
                <path d="M50.3785862,38.2077295 C50.3785862,44.8479114 44.9791034,50.2316614 38.3181724,50.2316614 C31.6585862,50.2316614 26.2591034,44.8479114 26.2591034,38.2077295 C26.2591034,31.5662068 31.6585862,26.1824568 38.3181724,26.1824568 C44.9791034,26.1824568 50.3785862,31.5662068 50.3785862,38.2077295 Z" id="Stroke-29" stroke-linecap="round"></path>
                <path d="M56.538031,37.9477273 L50.3787207,37.9477273" id="Stroke-33" stroke-linecap="round" stroke-linejoin="round"></path>
                <path d="M75.200069,35.8270795 L56.5378966,35.8270795 L56.5378966,40.5873068 L75.200069,40.5873068 C76.518,40.5873068 77.5857931,39.5212841 77.5857931,38.2071932 C77.5857931,36.8931023 76.518,35.8270795 75.200069,35.8270795 Z" id="Stroke-37" stroke-linecap="round" stroke-linejoin="round"></path>
                <path d="M61.862069,35.8270795 L61.862069,40.5873068" id="Stroke-39" stroke-linejoin="round"></path>
            </g>
        </g>
    </g>
</svg>