<?xml version="1.0" encoding="UTF-8"?>
<svg width="62px" height="63px" viewBox="0 0 62 63" version="1.1" xmlns="http://www.w3.org/2000/svg" xmlns:xlink="http://www.w3.org/1999/xlink">
    <!-- Generator: Sketch 41.2 (35397) - http://www.bohemiancoding.com/sketch -->
    <title>Page 1</title>
    <desc>Created with Sketch.</desc>
    <defs></defs>
    <g id="功能选择入口" stroke="none" stroke-width="1" fill="none" fill-rule="evenodd" stroke-linecap="round" stroke-linejoin="round">
        <g id="Page-1" transform="translate(31.444171, 31.490381) rotate(-30.000000) translate(-31.444171, -31.490381) translate(1.444171, 1.490381)" stroke="#FFFFFF" stroke-width="2">
            <path d="M59.4460082,29.8391116 C59.4460082,46.18955 46.190602,59.4449562 29.8401636,59.4449562 C13.4876213,59.4449562 0.230111046,46.18955 0.230111046,29.8391116 C0.230111046,13.4886733 13.4876213,0.231163063 29.8401636,0.231163063 C46.190602,0.231163063 59.4460082,13.4886733 59.4460082,29.8391116 Z" id="Stroke-1"></path>
            <path d="M53.8385506,29.8391116 C53.8385506,43.0924138 43.0953594,53.8377089 29.8399532,53.8377089 C16.584547,53.8377089 5.8392519,43.0924138 5.8392519,29.8391116 C5.8392519,16.5837054 16.584547,5.83841029 29.8399532,5.83841029 C43.0953594,5.83841029 53.8385506,16.5837054 53.8385506,29.8391116 Z" id="Stroke-3"></path>
            <polyline id="Stroke-5" points="7.63420222 38.3856926 15.0361894 34.1124021 15.0361894 25.5658212 7.63420222 21.2904267"></polyline>
            <path d="M16.9645354,50.0923203 L22.4371245,46.9320631" id="Stroke-7"></path>
            <path d="M15.0351373,34.1117709 L22.4371245,38.3850614" id="Stroke-9"></path>
            <path d="M22.4362829,21.2914787 L15.0342957,25.5647691" id="Stroke-11"></path>
            <path d="M29.4915254,34.1117709 L29.4915254,25.5651899" id="Stroke-13"></path>
            <polygon id="Stroke-15" points="29.8395324 34.1117709 22.4354413 38.3850614 22.4354413 46.9316423 29.8395324 51.2070368 37.2415196 46.9316423 37.2415196 38.3850614"></polygon>
            <path d="M29.7966102,51.2059848 L29.7966102,53.8381297" id="Stroke-17"></path>
            <path d="M42.7164231,50.0944243 L37.2396259,46.9320631" id="Stroke-19"></path>
            <path d="M16.9605377,9.58253653 L22.4373349,12.7448977" id="Stroke-21"></path>
            <polygon id="Stroke-23" points="29.8395324 8.47097604 22.4354413 12.7442665 22.4354413 21.2908475 29.8395324 25.566242 37.2415196 21.2908475 37.2415196 12.7442665"></polygon>
            <path d="M44.6416131,25.5651899 L37.2396259,21.2918995" id="Stroke-25"></path>
            <path d="M37.240678,38.3856926 L44.6426651,34.1124021" id="Stroke-27"></path>
            <path d="M29.7966102,5.83883109 L29.7966102,8.47097604" id="Stroke-29"></path>
            <path d="M42.7143191,9.58464056 L37.2396259,12.7448977" id="Stroke-31"></path>
            <polyline id="Stroke-33" points="52.0448627 21.2914787 44.6407715 25.5647691 44.6407715 34.1113501 52.0448627 38.3867446"></polyline>
            <path d="M23.8377089,29.7765517 C23.8377089,30.5819755 23.1848276,31.2348568 22.3794039,31.2348568 C21.5739801,31.2348568 20.9149971,30.5819755 20.9149971,29.7765517 C20.9149971,28.971128 21.5739801,28.3182466 22.3794039,28.3182466 C23.1848276,28.3182466 23.8377089,28.971128 23.8377089,29.7765517 Z" id="Stroke-35"></path>
            <path d="M38.6418936,29.7765517 C38.6418936,30.5819755 37.9890123,31.2348568 37.1835885,31.2348568 C36.3781648,31.2348568 35.7191818,30.5819755 35.7191818,29.7765517 C35.7191818,28.971128 36.3781648,28.3182466 37.1835885,28.3182466 C37.9890123,28.3182466 38.6418936,28.971128 38.6418936,29.7765517 Z" id="Stroke-37"></path>
            <path d="M46.189059,43.6148451 C46.189059,44.4202688 45.5422794,45.0731502 44.7368556,45.0731502 C43.9314319,45.0731502 43.2724489,44.4202688 43.2724489,43.6148451 C43.2724489,42.8094214 43.9314319,42.15654 44.7368556,42.15654 C45.5422794,42.15654 46.189059,42.8094214 46.189059,43.6148451 Z" id="Stroke-39"></path>
            <path d="M31.2348568,42.597896 C31.2348568,43.4033197 30.5880771,44.0562011 29.7826534,44.0562011 C28.971128,44.0562011 28.3182466,43.4033197 28.3182466,42.597896 C28.3182466,41.7924722 28.971128,41.1395909 29.7826534,41.1395909 C30.5880771,41.1395909 31.2348568,41.7924722 31.2348568,42.597896 Z" id="Stroke-41"></path>
            <path d="M16.4365634,43.6148451 C16.4365634,44.4202688 15.7836821,45.0731502 14.9782583,45.0731502 C14.1728346,45.0731502 13.5138515,44.4202688 13.5138515,43.6148451 C13.5138515,42.8094214 14.1728346,42.15654 14.9782583,42.15654 C15.7836821,42.15654 16.4365634,42.8094214 16.4365634,43.6148451 Z" id="Stroke-43"></path>
            <path d="M16.4365634,18.1251198 C16.4365634,18.9305435 15.7836821,19.5834249 14.9782583,19.5834249 C14.1728346,19.5834249 13.5138515,18.9305435 13.5138515,18.1251198 C13.5138515,17.3196961 14.1728346,16.6668147 14.9782583,16.6668147 C15.7836821,16.6668147 16.4365634,17.3196961 16.4365634,18.1251198 Z" id="Stroke-45"></path>
            <path d="M31.2348568,16.9571011 C31.2348568,17.7625248 30.5880771,18.4154062 29.7826534,18.4154062 C28.9772297,18.4154062 28.3182466,17.7625248 28.3182466,16.9571011 C28.3182466,16.1516774 28.9772297,15.498796 29.7826534,15.498796 C30.5880771,15.498796 31.2348568,16.1516774 31.2348568,16.9571011 Z" id="Stroke-47"></path>
            <path d="M46.0390415,17.9740503 C46.0390415,18.779474 45.3861601,19.4323553 44.5807364,19.4323553 C43.7753127,19.4323553 43.1224313,18.779474 43.1224313,17.9740503 C43.1224313,17.1686265 43.7753127,16.5157452 44.5807364,16.5157452 C45.3861601,16.5157452 46.0390415,17.1686265 46.0390415,17.9740503 Z" id="Stroke-49"></path>
        </g>
    </g>
</svg>