<?xml version="1.0" encoding="UTF-8"?>
<svg width="21px" height="11px" viewBox="0 0 21 11" version="1.1" xmlns="http://www.w3.org/2000/svg" xmlns:xlink="http://www.w3.org/1999/xlink">
    <!-- Generator: Sketch 41.2 (35397) - http://www.bohemiancoding.com/sketch -->
    <title>Page 1</title>
    <desc>Created with Sketch.</desc>
    <defs>
        <polygon id="path-1" points="9.7 10.04396 9.7 0.0884931248 4.41830112e-05 0.0884931248 4.41830112e-05 10.04396 9.7 10.04396"></polygon>
        <polygon id="path-3" points="9.7 9.9998518 9.7 0.04416 0 0.04416 0 9.9998518 9.7 9.9998518"></polygon>
    </defs>
    <g id="控制台" stroke="none" stroke-width="1" fill="none" fill-rule="evenodd">
        <g id="Page-1" transform="translate(10.500000, 5.750000) rotate(90.000000) translate(-10.500000, -5.750000) translate(5.500000, -4.750000)">
            <polygon id="Fill-1" fill="#F8B62D" points="1.2716 14.27476 8.352 14.27476 8.352 13.39196 1.2716 13.39196"></polygon>
            <polygon id="Fill-2" fill="#F8B62D" points="1.3096 16.39276 8.3904 16.39276 8.3904 15.50996 1.3096 15.50996"></polygon>
            <polygon id="Fill-3" fill="#F8B62D" points="1.3484 18.51116 8.4292 18.51116 8.4292 17.62876 1.3484 17.62876"></polygon>
            <polygon id="Fill-4" fill="#F8B62D" points="1.2064 3.19356 8.2872 3.19356 8.2872 2.31116 1.2064 2.31116"></polygon>
            <polygon id="Fill-5" fill="#F8B62D" points="1.2448 5.31196 8.3256 5.31196 8.3256 4.42916 1.2448 4.42916"></polygon>
            <polygon id="Fill-6" fill="#F8B62D" points="1.2836 7.42996 8.364 7.42996 8.364 6.54756 1.2836 6.54756"></polygon>
            <g id="Group-13" transform="translate(0.000000, 0.311560)">
                <g id="Group-9">
                    <mask id="mask-2" fill="white">
                        <use xlink:href="#path-1"></use>
                    </mask>
                    <g id="Clip-8"></g>
                    <path d="M3.62884,10.04396 L6.07084,10.04396 C6.07804,10.03716 6.08444,10.02996 6.09084,10.02316 C8.44044,7.56636 10.87044,5.02636 9.08204,0.61756 C8.90524,0.18356 8.41084,-0.02484 7.97804,0.15076 C7.54444,0.32676 7.33564,0.82076 7.51124,1.25436 C8.88724,4.64716 7.20124,6.41076 4.86644,8.85196 C4.86124,8.85756 4.85564,8.86356 4.85004,8.86956 C4.84444,8.86356 4.83884,8.85756 4.83364,8.85196 C2.49924,6.41076 0.81244,4.64716 2.18884,1.25436 C2.36484,0.82076 2.15564,0.32676 1.72204,0.15076 C1.28924,-0.02484 0.79444,0.18356 0.61844,0.61756 C-1.17036,5.02636 1.25964,7.56636 3.60884,10.02316 C3.61564,10.02996 3.62204,10.03716 3.62884,10.04396" id="Fill-7" fill="#286CAC" mask="url(#mask-2)"></path>
                </g>
                <g id="Group-12" transform="translate(0.000000, 10.000000)">
                    <mask id="mask-4" fill="white">
                        <use xlink:href="#path-3"></use>
                    </mask>
                    <g id="Clip-11"></g>
                    <path d="M6.07104,0.04416 L3.62904,0.04416 C3.62224,0.05136 3.61544,0.05856 3.60904,0.06536 C1.25984,2.52216 -1.17056,5.06216 0.61824,9.47096 C0.79464,9.90496 1.28944,10.11336 1.72224,9.93736 C2.15584,9.76176 2.36464,9.26776 2.18904,8.83416 C0.81264,5.44136 2.49904,3.67736 4.83344,1.23656 C4.83904,1.23096 4.84464,1.22496 4.84984,1.21936 C4.85584,1.22496 4.86144,1.23096 4.86624,1.23656 C7.20104,3.67736 8.88744,5.44136 7.51144,8.83416 C7.33544,9.26776 7.54464,9.76176 7.97824,9.93736 C8.41104,10.11336 8.90544,9.90496 9.08184,9.47096 C10.87024,5.06216 8.44064,2.52216 6.09104,0.06536 C6.08424,0.05856 6.07824,0.05136 6.07104,0.04416" id="Fill-10" fill="#286CAC" mask="url(#mask-4)"></path>
                </g>
            </g>
        </g>
    </g>
</svg>