<?xml version="1.0" encoding="UTF-8"?>
<svg width="30px" height="25px" viewBox="0 0 30 25" version="1.1" xmlns="http://www.w3.org/2000/svg" xmlns:xlink="http://www.w3.org/1999/xlink">
    <!-- Generator: Sketch 41.2 (35397) - http://www.bohemiancoding.com/sketch -->
    <title>Page 1</title>
    <desc>Created with Sketch.</desc>
    <defs>
        <polygon id="path-1" points="0 24.6316875 29.59375 24.6316875 29.59375 -0.0001875 0 -0.0001875"></polygon>
    </defs>
    <g id="控制台" stroke="none" stroke-width="1" fill="none" fill-rule="evenodd">
        <g id="Page-1">
            <path d="M4.3371875,14.603 C4.1309375,14.603 3.9284375,14.502375 3.8059375,14.31675 C3.6128125,14.023 3.6940625,13.628625 3.9865625,13.436125 L8.5753125,10.4155 L13.3384375,11.763 L17.2759375,7.168 L20.9353125,9.888 L24.4809375,4.808625 C24.6821875,4.5205 25.0796875,4.44925 25.3659375,4.651125 C25.6540625,4.85175 25.7253125,5.248625 25.5234375,5.53675 L21.2278125,11.689875 L17.4703125,8.89675 L13.7746875,13.208 L8.7890625,11.797375 L4.6865625,14.498 C4.5790625,14.56925 4.4571875,14.603 4.3371875,14.603 L4.3371875,14.603 Z" id="Fill-1" fill="#FFFFFF"></path>
            <mask id="mask-2" fill="white">
                <use xlink:href="#path-1"></use>
            </mask>
            <g id="Clip-4"></g>
            <polygon id="Fill-3" fill="#FFFFFF" mask="url(#mask-2)" points="10.88625 23.5429375 18.706875 23.5429375 18.706875 21.9429375 10.88625 21.9429375"></polygon>
            <path d="M1.83125,16.7960625 L27.75875,16.7960625 L27.75875,1.7710625 L1.83125,1.7710625 L1.83125,16.7960625 Z M28.856875,-0.0001875 L0.7375,-0.0001875 C0.328125,-0.0001875 0,0.3291875 0,0.7366875 L0,20.7554375 C0,21.1604375 0.328125,21.4885625 0.7375,21.4885625 L28.856875,21.4885625 C29.263125,21.4885625 29.59375,21.1604375 29.59375,20.7554375 L29.59375,0.7366875 C29.59375,0.3291875 29.263125,-0.0001875 28.856875,-0.0001875 L28.856875,-0.0001875 Z" id="Fill-5" fill="#FFFFFF" mask="url(#mask-2)"></path>
            <path d="M20.5774375,23.8995625 L9.0149375,23.8995625 C8.7224375,23.8995625 8.4843125,24.1389375 8.4843125,24.4339375 L8.4843125,24.6314375 L21.1080625,24.6314375 L21.1080625,24.4339375 C21.1080625,24.1389375 20.8705625,23.8995625 20.5774375,23.8995625" id="Fill-6" fill="#FFFFFF" mask="url(#mask-2)"></path>
            <path d="M6.03275,13.967 C6.03275,14.90575 5.274625,15.66325 4.337125,15.66325 C3.400875,15.66325 2.642125,14.90575 2.642125,13.967 C2.642125,13.03075 3.400875,12.272625 4.337125,12.272625 C5.274625,12.272625 6.03275,13.03075 6.03275,13.967" id="Fill-7" fill="#FFFFFF" mask="url(#mask-2)"></path>
            <path d="M10.3784375,11.1065625 C10.3784375,12.0446875 9.6196875,12.8021875 8.6821875,12.8021875 C7.7453125,12.8021875 6.9871875,12.0446875 6.9871875,11.1065625 C6.9871875,10.1696875 7.7453125,9.4115625 8.6821875,9.4115625 C9.6196875,9.4115625 10.3784375,10.1696875 10.3784375,11.1065625" id="Fill-8" fill="#FFFFFF" mask="url(#mask-2)"></path>
            <path d="M15.2533125,12.4856875 C15.2533125,13.4213125 14.4945625,14.1806875 13.5564375,14.1806875 C12.6195625,14.1806875 11.8626875,13.4213125 11.8626875,12.4856875 C11.8626875,11.5463125 12.6195625,10.7888125 13.5564375,10.7888125 C14.4945625,10.7888125 15.2533125,11.5463125 15.2533125,12.4856875" id="Fill-9" fill="#FFFFFF" mask="url(#mask-2)"></path>
            <path d="M19.067375,8.0325625 C19.067375,8.9706875 18.309875,9.7288125 17.373,9.7288125 C16.434875,9.7288125 15.676125,8.9706875 15.676125,8.0325625 C15.676125,7.0969375 16.434875,6.3381875 17.373,6.3381875 C18.309875,6.3381875 19.067375,7.0969375 19.067375,8.0325625" id="Fill-10" fill="#FFFFFF" mask="url(#mask-2)"></path>
            <path d="M22.7765,10.788875 C22.7765,11.727 22.018375,12.48575 21.0815,12.48575 C20.144625,12.48575 19.385875,11.727 19.385875,10.788875 C19.385875,9.852 20.144625,9.092625 21.0815,9.092625 C22.018375,9.092625 22.7765,9.852 22.7765,10.788875" id="Fill-11" fill="#FFFFFF" mask="url(#mask-2)"></path>
            <path d="M26.698,5.1724375 C26.698,6.1080625 25.93925,6.8674375 25.002375,6.8674375 C24.0655,6.8674375 23.307375,6.1080625 23.307375,5.1724375 C23.307375,4.2355625 24.0655,3.4755625 25.002375,3.4755625 C25.93925,3.4755625 26.698,4.2355625 26.698,5.1724375" id="Fill-12" fill="#FFFFFF" mask="url(#mask-2)"></path>
        </g>
    </g>
</svg>