<?xml version="1.0" encoding="UTF-8"?>
<svg width="30px" height="29px" viewBox="0 0 30 29" version="1.1" xmlns="http://www.w3.org/2000/svg" xmlns:xlink="http://www.w3.org/1999/xlink">
    <!-- Generator: Sketch 43 (38999) - http://www.bohemiancoding.com/sketch -->
    <title>回收_recycling1</title>
    <desc>Created with Sketch.</desc>
    <defs></defs>
    <g id="PGS回收站" stroke="none" stroke-width="1" fill="none" fill-rule="evenodd" opacity="0.698426178">
        <path d="M11.8467769,10.0535773 L6.35146399,6.90035419 C7.32974026,4.99041322 8.52325856,3.07565525 10.4733648,1.16249115 C10.7142857,0.905489965 11.0307556,0.736824085 11.4210744,0.658087367 L11.8355136,0.658087367 L12.127863,0.67094451 C13.0900945,0.831570248 14.0217591,2.10219599 14.5052656,2.82024793 C14.8859504,3.47079103 15.2505903,4.12940968 15.5991854,4.7944392 L11.8467769,10.0535773 Z M14.9743211,2.52626919 C15.8793861,4.05892562 16.6904841,5.64517119 17.4031169,7.27622196 L14.4908146,8.95165289 L22.9369658,9.76122786 L26.491771,2.04276269 L23.552196,3.73423849 C22.7522196,2.10864227 21.7321842,0.75609209 20.1868831,0.0637544274 L11.8628217,0.103919717 C12.9615584,0.0621605667 13.984817,1.0564817 14.9743211,2.52626919 Z M21.4286068,13.5377568 L21.4623259,13.4911806 L21.4639197,13.6068241 L23.6324911,18.2250531 C24.509575,18.2571783 25.3882172,18.2619953 26.2653011,18.2507674 C27.1761039,18.1752538 28.8659504,17.9680519 29.3928453,17.0990083 C29.4121133,17.0701063 29.4265643,17.039575 29.4442385,17.010673 L29.6578867,16.6251358 C29.6578867,16.4532468 29.6338017,16.2797639 29.5823731,16.1143211 C28.8707674,13.4783235 27.788111,11.502503 26.6026328,9.71142857 C24.7874734,10.7941204 22.9739079,11.8735891 21.1603424,12.9578749 L21.4286068,13.5377568 Z M26.2893861,18.8017119 C24.510673,18.8403188 22.7312869,18.7700472 20.9611452,18.5912869 L20.9257969,15.2308264 L16.0842857,22.1959268 L21.0703778,29.0791027 L21.0366588,25.688111 C22.843778,25.7893034 24.5208028,25.5596104 25.8862102,24.5556553 L29.9309681,17.2805313 C29.4249705,18.2571783 28.0547462,18.6587603 26.2893861,18.8017119 Z M8.61641086,19.2852538 C8.23731995,20.0161275 7.87909091,20.7566352 7.53375443,21.5100354 C7.20605667,22.3661865 6.66471074,23.978961 7.22210153,24.8287367 L7.28153483,24.9138489 L7.54498229,25.2817119 C7.75622196,25.4325266 8.00100354,25.5295396 8.25821724,25.5644274 C10.945608,26.0640142 13.1944746,25.9338843 15.3212869,25.6367178 L14.736588,19.327013 L8.61641086,19.2852538 Z M7.02453365,21.2931641 C7.75381346,19.7061039 8.55697757,18.1270484 9.50794569,16.5737426 L12.5567887,17.992137 L8.3577804,10.6190083 L0,12.1530815 L3.07455726,13.5811098 C2.2038843,15.1746163 1.68825266,16.7841677 2.00791027,18.4467414 C3.61427391,20.7116529 5.22060213,22.973412 6.83015348,25.2335065 C6.16512397,24.3580519 6.39162928,22.9492916 7.02453365,21.2931641 L7.02453365,21.2931641 Z" id="回收_recycling1" fill="#FFFFFF"></path>
    </g>
</svg>