<?xml version="1.0" encoding="UTF-8"?>
<svg width="33px" height="25px" viewBox="0 0 33 25" version="1.1" xmlns="http://www.w3.org/2000/svg" xmlns:xlink="http://www.w3.org/1999/xlink">
    <!-- Generator: Sketch 41.2 (35397) - http://www.bohemiancoding.com/sketch -->
    <title>Page 1</title>
    <desc>Created with Sketch.</desc>
    <defs>
        <polygon id="path-1" points="26.526829 23.5909921 0 23.5909921 0 0.0124163116 26.526829 0.0124163116 26.526829 23.5909921"></polygon>
        <polygon id="path-3" points="4.64494218 4.7949933 4.64494218 0.174418138 0.0247705417 0.174418138 0.0247705417 4.7949933 4.64494218 4.7949933"></polygon>
        <polygon id="path-5" points="0 24.1996397 32.5816433 24.1996397 32.5816433 0.621063907 0 0.621063907"></polygon>
    </defs>
    <g id="控制台" stroke="none" stroke-width="1" fill="none" fill-rule="evenodd">
        <g id="Page-1">
            <g id="Group-3" transform="translate(0.000000, 0.608648)">
                <mask id="mask-2" fill="white">
                    <use xlink:href="#path-1"></use>
                </mask>
                <g id="Clip-2"></g>
                <path d="M23.7207425,4.08136579 C23.0986853,4.08136579 22.5964455,3.5797468 22.5964455,2.95893122 C22.5964455,2.33811564 23.0986853,1.83587584 23.7207425,1.83587584 C24.3403165,1.83587584 24.8419355,2.33811564 24.8419355,2.95893122 C24.8419355,3.5797468 24.3403165,4.08136579 23.7207425,4.08136579 L23.7207425,4.08136579 Z M1.68303104,21.9068436 L24.8419355,21.9068436 L24.8419355,5.90842605 L1.68303104,5.90842605 L1.68303104,21.9068436 Z M17.1233354,1.83587584 C17.7441509,1.83587584 18.2476324,2.33811564 18.2476324,2.95893122 C18.2476324,3.5797468 17.7441509,4.08136579 17.1233354,4.08136579 C16.5025198,4.08136579 16.0015216,3.5797468 16.0015216,2.95893122 C16.0015216,2.33811564 16.5025198,1.83587584 17.1233354,1.83587584 L17.1233354,1.83587584 Z M20.4223494,1.83587584 C21.0419233,1.83587584 21.5441631,2.33811564 21.5441631,2.95893122 C21.5441631,3.5797468 21.0419233,4.08136579 20.4223494,4.08136579 C19.8015338,4.08136579 19.2980523,3.5797468 19.2980523,2.95893122 C19.2980523,2.33811564 19.8015338,1.83587584 20.4223494,1.83587584 L20.4223494,1.83587584 Z M25.6843822,0.0119196592 L0.841205113,0.0119196592 C0.375593427,0.0119196592 0,0.388754717 0,0.853745587 L0,22.7486695 C0,23.214902 0.375593427,23.5911163 0.841205113,23.5911163 L25.6843822,23.5911163 C26.1493731,23.5911163 26.526829,23.214902 26.526829,22.7486695 L26.526829,0.853745587 C26.526829,0.388754717 26.1493731,0.0119196592 25.6843822,0.0119196592 L25.6843822,0.0119196592 Z" id="Fill-1" fill="#286CAC" mask="url(#mask-2)"></path>
            </g>
            <polygon id="Fill-4" fill="#F8B62D" points="18.7633439 16.5655946 18.7068497 16.7555642 18.0487851 19.0407864 20.3321449 18.3827219 20.5258393 18.324986"></polygon>
            <g id="Group-8" transform="translate(27.936701, 4.333541)">
                <mask id="mask-4" fill="white">
                    <use xlink:href="#path-3"></use>
                </mask>
                <g id="Clip-7"></g>
                <path d="M3.52058308,4.7949933 L4.41083262,3.90536458 C4.72310286,3.58999026 4.72310286,3.08340475 4.41083262,2.77175533 L2.04676689,0.407689592 C1.73511747,0.096660986 1.22666951,0.096660986 0.913778454,0.407689592 L0.0247705417,1.3004224 L3.52058308,4.7949933 Z" id="Fill-6" fill="#F8B62D" mask="url(#mask-4)"></path>
            </g>
            <path d="M27.5845125,6.03836275 C27.5553341,6.06133293 27.5193268,6.07064516 27.4944942,6.09796105 L20.274409,13.3192879 C19.9459976,13.6470785 19.9459976,14.1797383 20.274409,14.5093914 L20.3476652,14.5832684 C20.5767462,14.8111077 20.9020536,14.8694644 21.1913536,14.7819294 C21.1038186,15.0712295 21.1615545,15.3946744 21.3912562,15.6256178 L21.4651333,15.7007365 C21.6929726,15.9291966 22.0201424,15.9869324 22.3088217,15.8981558 C22.2188034,16.1886975 22.2777809,16.5115216 22.5074827,16.742465 L22.5813597,16.8157212 C22.910392,17.1453743 23.4436726,17.1453743 23.772084,16.8157212 L30.99279,9.59687766 C31.0182435,9.56894096 31.030039,9.5347961 31.0517675,9.50623859 L27.5845125,6.03836275 Z" id="Fill-9" fill="#F8B62D"></path>
            <mask id="mask-6" fill="white">
                <use xlink:href="#path-5"></use>
            </mask>
            <g id="Clip-12"></g>
            <polygon id="Fill-11" fill="#286CAC" mask="url(#mask-6)" points="3.54299452 10.5944662 12.1046622 10.5944662 12.1046622 9.75326111 3.54299452 9.75326111"></polygon>
            <polygon id="Fill-13" fill="#286CAC" mask="url(#mask-6)" points="3.54299452 13.4017943 17.1574802 13.4017943 17.1574802 12.5599684 3.54299452 12.5599684"></polygon>
            <polygon id="Fill-14" fill="#286CAC" mask="url(#mask-6)" points="3.54299452 16.2078807 17.1574802 16.2078807 17.1574802 15.3666756 3.54299452 15.3666756"></polygon>
            <polygon id="Fill-15" fill="#286CAC" mask="url(#mask-6)" points="3.54299452 19.0164504 17.1574802 19.0164504 17.1574802 18.1752453 3.54299452 18.1752453"></polygon>
        </g>
    </g>
</svg>