<?xml version="1.0" encoding="UTF-8"?>
<svg width="30px" height="30px" viewBox="0 0 30 30" version="1.1" xmlns="http://www.w3.org/2000/svg" xmlns:xlink="http://www.w3.org/1999/xlink">
    <!-- Generator: Sketch 43 (38999) - http://www.bohemiancoding.com/sketch -->
    <title>Page 1</title>
    <desc>Created with Sketch.</desc>
    <defs></defs>
    <g id="PGS回收站" stroke="none" stroke-width="1" fill="none" fill-rule="evenodd">
        <g id="Page-1">
            <path d="M14.5905652,29.855413 C12.5486087,29.855413 10.5125217,29.4210652 8.59513043,28.5549783 C1.25947826,25.2478043 -2.019,16.5856304 1.28947826,9.24867391 L6.1286087,11.4308478 C4.0233913,16.0991087 6.10904348,21.6112826 10.7786087,23.7171522 C15.4488261,25.8262826 20.9603478,23.7360652 23.064913,19.0671522 L27.9014348,21.2506304 C26.3003478,24.8056304 23.4086087,27.5219348 19.7636087,28.9032391 C18.0823043,29.5384565 16.3344783,29.855413 14.5905652,29.855413" id="Fill-1" fill="#286CAC"></path>
            <path d="M13.2696522,0.727369565 C9.32595652,1.08345652 5.70965217,2.99693478 3.20073913,6.12606522 C2.71030435,6.7391087 2.27726087,7.38736957 1.8963913,8.06563043 L6.76421739,10.2595435 C6.94291304,9.98236957 7.1313913,9.70780435 7.3413913,9.44432609 C8.83682609,7.58302174 10.9498696,6.39606522 13.2696522,6.06541304 L13.2696522,0.727369565 Z" id="Fill-4" fill="#286CAC"></path>
            <path d="M23.7866087,16.5763043 C23.7233478,16.9982609 23.634,17.4130435 23.5166087,17.8167391 L28.3805217,20.01 C28.7587826,18.9169565 29.0157391,17.7658696 29.1272609,16.5763043 L23.7866087,16.5763043 Z" id="Fill-6" fill="#286CAC"></path>
            <path d="M29.1944348,15.2503043 L23.885087,15.2503043 C23.885087,10.1281304 19.719,5.96073913 14.5955217,5.96073913 L14.5955217,0.652043478 C22.6446522,0.652043478 29.1944348,7.20117391 29.1944348,15.2503043" id="Fill-8" fill="#F8B62D"></path>
            <polygon id="Fill-11" fill="#F8B62D" points="9.28826087 20.4856304 11.9426087 20.4856304 11.9426087 17.0199783 9.28826087 17.0199783"></polygon>
            <polygon id="Fill-13" fill="#F8B62D" points="13.2697826 20.4856304 15.9241304 20.4856304 15.9241304 12.7436739 13.2697826 12.7436739"></polygon>
            <polygon id="Fill-14" fill="#F8B62D" points="17.2519565 20.4856304 19.9036957 20.4856304 19.9036957 10.5328043 17.2519565 10.5328043"></polygon>
        </g>
    </g>
</svg>