<?xml version="1.0" encoding="UTF-8"?>
<svg width="30px" height="30px" viewBox="0 0 30 30" version="1.1" xmlns="http://www.w3.org/2000/svg" xmlns:xlink="http://www.w3.org/1999/xlink">
    <!-- Generator: Sketch 43 (38999) - http://www.bohemiancoding.com/sketch -->
    <title>页面 </title>
    <desc>Created with Sketch.</desc>
    <defs>
        <polygon id="path-1" points="13.9507174 20.8695652 0 20.8695652 0 0.262826087 27.9014348 0.262826087 27.9014348 20.8695652"></polygon>
        <polygon id="path-3" points="14.8466087 0.144782609 0.247695652 0.144782609 0.247695652 14.7427174 14.8466087 14.7427174 14.8466087 0.144782609"></polygon>
        <polygon id="path-5" points="0 29.855413 29.1945652 29.855413 29.1945652 0.652369565 0 0.652369565"></polygon>
    </defs>
    <g id="PGS回收站" stroke="none" stroke-width="1" fill="none" fill-rule="evenodd" opacity="0.7">
        <g id="Page-1">
            <g id="Group-3" transform="translate(0.000000, 8.985848)">
                <mask id="mask-2" fill="white">
                    <use xlink:href="#path-1"></use>
                </mask>
                <g id="Clip-2"></g>
                <path d="M14.5905652,20.8695652 C12.5486087,20.8695652 10.5125217,20.4352174 8.59513043,19.5691304 C1.25947826,16.2619565 -2.019,7.59978261 1.28947826,0.262826087 L6.1286087,2.445 C4.0233913,7.11326087 6.10904348,12.6254348 10.7786087,14.7313043 C15.4488261,16.8404348 20.9603478,14.7502174 23.064913,10.0813043 L27.9014348,12.2647826 C26.3003478,15.8197826 23.4086087,18.536087 19.7636087,19.9173913 C18.0823043,20.5526087 16.3344783,20.8695652 14.5905652,20.8695652" id="Fill-1" fill="#FFFFFF" mask="url(#mask-2)"></path>
            </g>
            <path d="M13.2696522,0.727369565 C9.32595652,1.08345652 5.70965217,2.99693478 3.20073913,6.12606522 C2.71030435,6.7391087 2.27726087,7.38736957 1.8963913,8.06563043 L6.76421739,10.2595435 C6.94291304,9.98236957 7.1313913,9.70780435 7.3413913,9.44432609 C8.83682609,7.58302174 10.9498696,6.39606522 13.2696522,6.06541304 L13.2696522,0.727369565 Z" id="Fill-4" fill="#FFFFFF"></path>
            <path d="M23.7866087,16.5763043 C23.7233478,16.9982609 23.634,17.4130435 23.5166087,17.8167391 L28.3805217,20.01 C28.7587826,18.9169565 29.0157391,17.7658696 29.1272609,16.5763043 L23.7866087,16.5763043 Z" id="Fill-6" fill="#FFFFFF"></path>
            <g id="Group-10" transform="translate(14.347826, 0.507587)">
                <mask id="mask-4" fill="white">
                    <use xlink:href="#path-3"></use>
                </mask>
                <g id="Clip-9"></g>
                <path d="M14.8466087,14.7427174 L9.53726087,14.7427174 C9.53726087,9.62054348 5.37117391,5.45315217 0.247695652,5.45315217 L0.247695652,0.144456522 C8.29682609,0.144456522 14.8466087,6.69358696 14.8466087,14.7427174" id="Fill-8" fill="#FFFFFF" mask="url(#mask-4)"></path>
            </g>
            <mask id="mask-6" fill="white">
                <use xlink:href="#path-5"></use>
            </mask>
            <g id="Clip-12"></g>
            <polygon id="Fill-11" fill="#FFFFFF" mask="url(#mask-6)" points="9.28826087 20.4856304 11.9426087 20.4856304 11.9426087 17.0199783 9.28826087 17.0199783"></polygon>
            <polygon id="Fill-13" fill="#FFFFFF" mask="url(#mask-6)" points="13.2697826 20.4856304 15.9241304 20.4856304 15.9241304 12.7436739 13.2697826 12.7436739"></polygon>
            <polygon id="Fill-14" fill="#FFFFFF" mask="url(#mask-6)" points="17.2519565 20.4856304 19.9036957 20.4856304 19.9036957 10.5328043 17.2519565 10.5328043"></polygon>
        </g>
    </g>
</svg>